<mxfile host="app.diagrams.net" modified="2024-07-08T01:46:04.916Z" agent="Mozilla/5.0 (Windows NT 10.0; Win64; x64) AppleWebKit/537.36 (KHTML, like Gecko) Chrome/126.0.0.0 Safari/537.36" etag="E3yaQJEtNlewZ1R97IVh" version="24.6.4" type="gitlab">
  <diagram name="Page-1" id="CtHhPpYxBfERY2EWoS9T">
    <mxGraphModel dx="1235" dy="614" grid="1" gridSize="10" guides="1" tooltips="1" connect="1" arrows="1" fold="1" page="1" pageScale="1" pageWidth="850" pageHeight="1100" math="0" shadow="0">
      <root>
        <mxCell id="0" />
        <mxCell id="1" parent="0" />
        <mxCell id="F01I8WIsRU8U-EAt5uAC-1" value="" style="rounded=0;whiteSpace=wrap;html=1;fillColor=none;" vertex="1" parent="1">
          <mxGeometry x="1290" y="530" width="160" height="170" as="geometry" />
        </mxCell>
        <mxCell id="F01I8WIsRU8U-EAt5uAC-2" value="" style="rounded=0;whiteSpace=wrap;html=1;fillColor=#FFFFFF;" vertex="1" parent="1">
          <mxGeometry x="1010" y="270" width="660" height="220" as="geometry" />
        </mxCell>
        <mxCell id="F01I8WIsRU8U-EAt5uAC-3" value="" style="rounded=0;whiteSpace=wrap;html=1;strokeColor=#000000;fillColor=none;" vertex="1" parent="1">
          <mxGeometry x="1000" y="810" width="140" height="180" as="geometry" />
        </mxCell>
        <mxCell id="F01I8WIsRU8U-EAt5uAC-4" value="" style="rounded=0;whiteSpace=wrap;html=1;fillColor=none;" vertex="1" parent="1">
          <mxGeometry x="30" y="250" width="900" height="730" as="geometry" />
        </mxCell>
        <mxCell id="F01I8WIsRU8U-EAt5uAC-5" value="&lt;font style=&quot;font-size: 18px;&quot;&gt;Service Management and Orchestration (SMO)&lt;/font&gt;" style="rounded=0;whiteSpace=wrap;html=1;fontStyle=1" vertex="1" parent="1">
          <mxGeometry x="268" y="270" width="480" height="40" as="geometry" />
        </mxCell>
        <mxCell id="F01I8WIsRU8U-EAt5uAC-6" value="" style="rounded=0;whiteSpace=wrap;html=1;" vertex="1" parent="1">
          <mxGeometry x="268" y="310" width="480" height="80" as="geometry" />
        </mxCell>
        <mxCell id="F01I8WIsRU8U-EAt5uAC-7" value="Inventory" style="rounded=1;whiteSpace=wrap;html=1;" vertex="1" parent="1">
          <mxGeometry x="278" y="320" width="100" height="30" as="geometry" />
        </mxCell>
        <mxCell id="F01I8WIsRU8U-EAt5uAC-8" value="Data Analytics" style="rounded=1;whiteSpace=wrap;html=1;" vertex="1" parent="1">
          <mxGeometry x="398" y="320" width="100" height="30" as="geometry" />
        </mxCell>
        <mxCell id="F01I8WIsRU8U-EAt5uAC-9" value="AI/ML Models" style="rounded=1;whiteSpace=wrap;html=1;" vertex="1" parent="1">
          <mxGeometry x="518" y="320" width="100" height="30" as="geometry" />
        </mxCell>
        <mxCell id="F01I8WIsRU8U-EAt5uAC-10" value="rApps" style="rounded=1;whiteSpace=wrap;html=1;" vertex="1" parent="1">
          <mxGeometry x="638" y="320" width="100" height="30" as="geometry" />
        </mxCell>
        <mxCell id="F01I8WIsRU8U-EAt5uAC-11" value="&lt;font style=&quot;font-size: 14px;&quot;&gt;Non Real Time Radio Access Network Intelligent Controller (Non-RT RIC)&lt;/font&gt;" style="text;html=1;align=center;verticalAlign=middle;whiteSpace=wrap;rounded=0;" vertex="1" parent="1">
          <mxGeometry x="268" y="350" width="480" height="40" as="geometry" />
        </mxCell>
        <mxCell id="F01I8WIsRU8U-EAt5uAC-12" value="" style="rounded=0;whiteSpace=wrap;html=1;" vertex="1" parent="1">
          <mxGeometry x="268" y="470" width="480" height="80" as="geometry" />
        </mxCell>
        <mxCell id="F01I8WIsRU8U-EAt5uAC-13" value="Interference Management" style="rounded=1;whiteSpace=wrap;html=1;" vertex="1" parent="1">
          <mxGeometry x="278" y="480" width="100" height="30" as="geometry" />
        </mxCell>
        <mxCell id="F01I8WIsRU8U-EAt5uAC-14" value="Mobility Management" style="rounded=1;whiteSpace=wrap;html=1;" vertex="1" parent="1">
          <mxGeometry x="398" y="480" width="100" height="30" as="geometry" />
        </mxCell>
        <mxCell id="F01I8WIsRU8U-EAt5uAC-15" value="Trained Models" style="rounded=1;whiteSpace=wrap;html=1;" vertex="1" parent="1">
          <mxGeometry x="518" y="480" width="100" height="30" as="geometry" />
        </mxCell>
        <mxCell id="F01I8WIsRU8U-EAt5uAC-16" value="xApps" style="rounded=1;whiteSpace=wrap;html=1;" vertex="1" parent="1">
          <mxGeometry x="638" y="480" width="100" height="30" as="geometry" />
        </mxCell>
        <mxCell id="F01I8WIsRU8U-EAt5uAC-17" value="&lt;font style=&quot;font-size: 14px;&quot;&gt;Near Real Time Radio Access Network Intelligent Controller (&lt;b&gt;Near-RT RIC&lt;/b&gt;)&lt;/font&gt;&lt;div&gt;&lt;font style=&quot;font-size: 14px;&quot;&gt;&lt;b&gt;(FlexRIC and OSC RIC)&lt;/b&gt;&lt;/font&gt;&lt;/div&gt;" style="text;html=1;align=center;verticalAlign=middle;whiteSpace=wrap;rounded=0;" vertex="1" parent="1">
          <mxGeometry x="268" y="510" width="480" height="40" as="geometry" />
        </mxCell>
        <mxCell id="F01I8WIsRU8U-EAt5uAC-18" value="" style="endArrow=classic;startArrow=classic;html=1;rounded=0;entryX=0.5;entryY=1;entryDx=0;entryDy=0;exitX=0.5;exitY=0;exitDx=0;exitDy=0;" edge="1" parent="1" source="F01I8WIsRU8U-EAt5uAC-12" target="F01I8WIsRU8U-EAt5uAC-11">
          <mxGeometry width="50" height="50" relative="1" as="geometry">
            <mxPoint x="558" y="440" as="sourcePoint" />
            <mxPoint x="558" y="480" as="targetPoint" />
          </mxGeometry>
        </mxCell>
        <mxCell id="F01I8WIsRU8U-EAt5uAC-19" value="" style="rounded=0;whiteSpace=wrap;html=1;" vertex="1" parent="1">
          <mxGeometry x="568" y="590" width="120" height="80" as="geometry" />
        </mxCell>
        <mxCell id="F01I8WIsRU8U-EAt5uAC-20" value="" style="rounded=0;whiteSpace=wrap;html=1;" vertex="1" parent="1">
          <mxGeometry x="568" y="710" width="120" height="80" as="geometry" />
        </mxCell>
        <mxCell id="F01I8WIsRU8U-EAt5uAC-21" value="" style="rounded=0;whiteSpace=wrap;html=1;" vertex="1" parent="1">
          <mxGeometry x="368" y="710" width="120" height="80" as="geometry" />
        </mxCell>
        <mxCell id="F01I8WIsRU8U-EAt5uAC-22" value="" style="rounded=0;whiteSpace=wrap;html=1;" vertex="1" parent="1">
          <mxGeometry x="368" y="830" width="120" height="80" as="geometry" />
        </mxCell>
        <mxCell id="F01I8WIsRU8U-EAt5uAC-23" value="Antenna" style="rounded=0;whiteSpace=wrap;html=1;" vertex="1" parent="1">
          <mxGeometry x="718" y="830" width="80" height="80" as="geometry" />
        </mxCell>
        <mxCell id="F01I8WIsRU8U-EAt5uAC-24" value="User Equipment (UE)" style="rounded=0;whiteSpace=wrap;html=1;" vertex="1" parent="1">
          <mxGeometry x="1020" y="830" width="102" height="40" as="geometry" />
        </mxCell>
        <mxCell id="F01I8WIsRU8U-EAt5uAC-25" value="" style="endArrow=classic;startArrow=classic;html=1;rounded=0;entryX=0;entryY=0.5;entryDx=0;entryDy=0;exitX=1;exitY=0.25;exitDx=0;exitDy=0;" edge="1" parent="1" source="F01I8WIsRU8U-EAt5uAC-23" target="F01I8WIsRU8U-EAt5uAC-24">
          <mxGeometry width="50" height="50" relative="1" as="geometry">
            <mxPoint x="718" y="830" as="sourcePoint" />
            <mxPoint x="768" y="780" as="targetPoint" />
          </mxGeometry>
        </mxCell>
        <mxCell id="F01I8WIsRU8U-EAt5uAC-26" value="" style="endArrow=classic;startArrow=classic;html=1;rounded=0;entryX=0;entryY=0.5;entryDx=0;entryDy=0;exitX=1;exitY=0.5;exitDx=0;exitDy=0;" edge="1" parent="1" source="F01I8WIsRU8U-EAt5uAC-23" target="F01I8WIsRU8U-EAt5uAC-65">
          <mxGeometry width="50" height="50" relative="1" as="geometry">
            <mxPoint x="808" y="860" as="sourcePoint" />
            <mxPoint x="878" y="930" as="targetPoint" />
            <Array as="points">
              <mxPoint x="840" y="870" />
              <mxPoint x="840" y="900" />
            </Array>
          </mxGeometry>
        </mxCell>
        <mxCell id="F01I8WIsRU8U-EAt5uAC-27" value="" style="endArrow=classic;startArrow=classic;html=1;rounded=0;entryX=0;entryY=0.5;entryDx=0;entryDy=0;exitX=1;exitY=0.75;exitDx=0;exitDy=0;" edge="1" parent="1" source="F01I8WIsRU8U-EAt5uAC-23" target="F01I8WIsRU8U-EAt5uAC-66">
          <mxGeometry width="50" height="50" relative="1" as="geometry">
            <mxPoint x="818" y="870" as="sourcePoint" />
            <mxPoint x="878" y="1010" as="targetPoint" />
            <Array as="points">
              <mxPoint x="818" y="890" />
              <mxPoint x="818" y="950" />
            </Array>
          </mxGeometry>
        </mxCell>
        <mxCell id="F01I8WIsRU8U-EAt5uAC-28" value="" style="endArrow=classic;startArrow=classic;html=1;rounded=0;entryX=0;entryY=0.5;entryDx=0;entryDy=0;exitX=1;exitY=0.5;exitDx=0;exitDy=0;" edge="1" parent="1" source="F01I8WIsRU8U-EAt5uAC-22" target="F01I8WIsRU8U-EAt5uAC-23">
          <mxGeometry width="50" height="50" relative="1" as="geometry">
            <mxPoint x="618" y="860" as="sourcePoint" />
            <mxPoint x="698" y="860" as="targetPoint" />
          </mxGeometry>
        </mxCell>
        <mxCell id="F01I8WIsRU8U-EAt5uAC-29" value="" style="endArrow=classic;startArrow=classic;html=1;rounded=0;entryX=0;entryY=0.5;entryDx=0;entryDy=0;exitX=1;exitY=0.5;exitDx=0;exitDy=0;" edge="1" parent="1" source="F01I8WIsRU8U-EAt5uAC-21" target="F01I8WIsRU8U-EAt5uAC-20">
          <mxGeometry width="50" height="50" relative="1" as="geometry">
            <mxPoint x="498" y="880" as="sourcePoint" />
            <mxPoint x="538" y="880" as="targetPoint" />
          </mxGeometry>
        </mxCell>
        <mxCell id="F01I8WIsRU8U-EAt5uAC-30" value="" style="endArrow=classic;startArrow=classic;html=1;rounded=0;entryX=0.5;entryY=1;entryDx=0;entryDy=0;exitX=0.5;exitY=0;exitDx=0;exitDy=0;" edge="1" parent="1" source="F01I8WIsRU8U-EAt5uAC-22" target="F01I8WIsRU8U-EAt5uAC-21">
          <mxGeometry width="50" height="50" relative="1" as="geometry">
            <mxPoint x="498" y="760" as="sourcePoint" />
            <mxPoint x="578" y="760" as="targetPoint" />
          </mxGeometry>
        </mxCell>
        <mxCell id="F01I8WIsRU8U-EAt5uAC-31" value="" style="endArrow=classic;startArrow=classic;html=1;rounded=0;entryX=0.5;entryY=1;entryDx=0;entryDy=0;" edge="1" parent="1" source="F01I8WIsRU8U-EAt5uAC-20" target="F01I8WIsRU8U-EAt5uAC-19">
          <mxGeometry width="50" height="50" relative="1" as="geometry">
            <mxPoint x="508" y="770" as="sourcePoint" />
            <mxPoint x="588" y="770" as="targetPoint" />
          </mxGeometry>
        </mxCell>
        <mxCell id="F01I8WIsRU8U-EAt5uAC-32" value="" style="endArrow=classic;startArrow=classic;html=1;rounded=0;exitX=0.5;exitY=0;exitDx=0;exitDy=0;" edge="1" parent="1" source="F01I8WIsRU8U-EAt5uAC-19">
          <mxGeometry width="50" height="50" relative="1" as="geometry">
            <mxPoint x="618" y="720" as="sourcePoint" />
            <mxPoint x="628" y="550" as="targetPoint" />
          </mxGeometry>
        </mxCell>
        <mxCell id="F01I8WIsRU8U-EAt5uAC-33" value="" style="endArrow=classic;startArrow=classic;html=1;rounded=0;entryX=1;entryY=0.75;entryDx=0;entryDy=0;exitX=1;exitY=0.5;exitDx=0;exitDy=0;" edge="1" parent="1" source="F01I8WIsRU8U-EAt5uAC-19" target="F01I8WIsRU8U-EAt5uAC-5">
          <mxGeometry width="50" height="50" relative="1" as="geometry">
            <mxPoint x="508" y="530" as="sourcePoint" />
            <mxPoint x="558" y="480" as="targetPoint" />
            <Array as="points">
              <mxPoint x="838" y="630" />
              <mxPoint x="838" y="300" />
            </Array>
          </mxGeometry>
        </mxCell>
        <mxCell id="F01I8WIsRU8U-EAt5uAC-34" value="" style="endArrow=classic;startArrow=classic;html=1;rounded=0;entryX=1;entryY=0.5;entryDx=0;entryDy=0;exitX=1;exitY=0;exitDx=0;exitDy=0;" edge="1" parent="1" source="F01I8WIsRU8U-EAt5uAC-17" target="F01I8WIsRU8U-EAt5uAC-5">
          <mxGeometry width="50" height="50" relative="1" as="geometry">
            <mxPoint x="838" y="510" as="sourcePoint" />
            <mxPoint x="758" y="310" as="targetPoint" />
            <Array as="points">
              <mxPoint x="798" y="510" />
              <mxPoint x="798" y="290" />
            </Array>
          </mxGeometry>
        </mxCell>
        <mxCell id="F01I8WIsRU8U-EAt5uAC-35" value="" style="endArrow=classic;startArrow=classic;html=1;rounded=0;entryX=1;entryY=0.5;entryDx=0;entryDy=0;exitX=1;exitY=0.25;exitDx=0;exitDy=0;" edge="1" parent="1" source="F01I8WIsRU8U-EAt5uAC-5" target="F01I8WIsRU8U-EAt5uAC-20">
          <mxGeometry width="50" height="50" relative="1" as="geometry">
            <mxPoint x="878" y="410" as="sourcePoint" />
            <mxPoint x="558" y="580" as="targetPoint" />
            <Array as="points">
              <mxPoint x="868" y="280" />
              <mxPoint x="868" y="750" />
            </Array>
          </mxGeometry>
        </mxCell>
        <mxCell id="F01I8WIsRU8U-EAt5uAC-36" value="" style="endArrow=classic;startArrow=classic;html=1;rounded=0;entryX=0;entryY=0.5;entryDx=0;entryDy=0;exitX=0;exitY=0.5;exitDx=0;exitDy=0;" edge="1" parent="1" source="F01I8WIsRU8U-EAt5uAC-21" target="F01I8WIsRU8U-EAt5uAC-5">
          <mxGeometry width="50" height="50" relative="1" as="geometry">
            <mxPoint x="508" y="530" as="sourcePoint" />
            <mxPoint x="558" y="480" as="targetPoint" />
            <Array as="points">
              <mxPoint x="90" y="750" />
              <mxPoint x="90" y="290" />
            </Array>
          </mxGeometry>
        </mxCell>
        <mxCell id="F01I8WIsRU8U-EAt5uAC-37" value="O-RU" style="text;html=1;align=center;verticalAlign=middle;whiteSpace=wrap;rounded=0;" vertex="1" parent="1">
          <mxGeometry x="398" y="835" width="60" height="30" as="geometry" />
        </mxCell>
        <mxCell id="F01I8WIsRU8U-EAt5uAC-38" value="RLC" style="rounded=1;whiteSpace=wrap;html=1;" vertex="1" parent="1">
          <mxGeometry x="375.5" y="720" width="45" height="30" as="geometry" />
        </mxCell>
        <mxCell id="F01I8WIsRU8U-EAt5uAC-39" value="MAC" style="rounded=1;whiteSpace=wrap;html=1;" vertex="1" parent="1">
          <mxGeometry x="375.5" y="755" width="45" height="30" as="geometry" />
        </mxCell>
        <mxCell id="F01I8WIsRU8U-EAt5uAC-40" value="O-DU" style="text;html=1;align=center;verticalAlign=middle;whiteSpace=wrap;rounded=0;" vertex="1" parent="1">
          <mxGeometry x="425.5" y="715" width="60" height="30" as="geometry" />
        </mxCell>
        <mxCell id="F01I8WIsRU8U-EAt5uAC-41" value="O-CU-UP" style="text;html=1;align=center;verticalAlign=middle;whiteSpace=wrap;rounded=0;" vertex="1" parent="1">
          <mxGeometry x="598" y="715" width="60" height="30" as="geometry" />
        </mxCell>
        <mxCell id="F01I8WIsRU8U-EAt5uAC-42" value="O-CU-CP" style="text;html=1;align=center;verticalAlign=middle;whiteSpace=wrap;rounded=0;" vertex="1" parent="1">
          <mxGeometry x="598" y="600" width="60" height="30" as="geometry" />
        </mxCell>
        <mxCell id="F01I8WIsRU8U-EAt5uAC-43" value="RRC" style="rounded=1;whiteSpace=wrap;html=1;" vertex="1" parent="1">
          <mxGeometry x="573" y="630" width="45" height="30" as="geometry" />
        </mxCell>
        <mxCell id="F01I8WIsRU8U-EAt5uAC-44" value="PDCP-C" style="rounded=1;whiteSpace=wrap;html=1;" vertex="1" parent="1">
          <mxGeometry x="628" y="630" width="55" height="30" as="geometry" />
        </mxCell>
        <mxCell id="F01I8WIsRU8U-EAt5uAC-45" value="SDAP" style="rounded=1;whiteSpace=wrap;html=1;" vertex="1" parent="1">
          <mxGeometry x="573" y="750" width="45" height="30" as="geometry" />
        </mxCell>
        <mxCell id="F01I8WIsRU8U-EAt5uAC-46" value="PDCP-U" style="rounded=1;whiteSpace=wrap;html=1;" vertex="1" parent="1">
          <mxGeometry x="628" y="750" width="55" height="30" as="geometry" />
        </mxCell>
        <mxCell id="F01I8WIsRU8U-EAt5uAC-47" value="PHY-H" style="rounded=1;whiteSpace=wrap;html=1;" vertex="1" parent="1">
          <mxGeometry x="435.5" y="755" width="45" height="30" as="geometry" />
        </mxCell>
        <mxCell id="F01I8WIsRU8U-EAt5uAC-48" value="RF" style="rounded=1;whiteSpace=wrap;html=1;" vertex="1" parent="1">
          <mxGeometry x="435.5" y="870" width="45" height="30" as="geometry" />
        </mxCell>
        <mxCell id="F01I8WIsRU8U-EAt5uAC-49" value="PHY-L" style="rounded=1;whiteSpace=wrap;html=1;" vertex="1" parent="1">
          <mxGeometry x="375.5" y="870" width="45" height="30" as="geometry" />
        </mxCell>
        <mxCell id="F01I8WIsRU8U-EAt5uAC-50" value="" style="endArrow=none;html=1;rounded=0;dashed=1;" edge="1" parent="1">
          <mxGeometry width="50" height="50" relative="1" as="geometry">
            <mxPoint x="308" y="580" as="sourcePoint" />
            <mxPoint x="308" y="920" as="targetPoint" />
          </mxGeometry>
        </mxCell>
        <mxCell id="F01I8WIsRU8U-EAt5uAC-51" value="" style="endArrow=none;html=1;rounded=0;dashed=1;" edge="1" parent="1">
          <mxGeometry width="50" height="50" relative="1" as="geometry">
            <mxPoint x="708" y="920" as="sourcePoint" />
            <mxPoint x="308" y="920" as="targetPoint" />
          </mxGeometry>
        </mxCell>
        <mxCell id="F01I8WIsRU8U-EAt5uAC-52" value="" style="endArrow=none;html=1;rounded=0;dashed=1;" edge="1" parent="1">
          <mxGeometry width="50" height="50" relative="1" as="geometry">
            <mxPoint x="708" y="580" as="sourcePoint" />
            <mxPoint x="708" y="920" as="targetPoint" />
          </mxGeometry>
        </mxCell>
        <mxCell id="F01I8WIsRU8U-EAt5uAC-53" value="" style="endArrow=none;html=1;rounded=0;dashed=1;" edge="1" parent="1">
          <mxGeometry width="50" height="50" relative="1" as="geometry">
            <mxPoint x="308" y="580" as="sourcePoint" />
            <mxPoint x="708" y="580" as="targetPoint" />
          </mxGeometry>
        </mxCell>
        <mxCell id="F01I8WIsRU8U-EAt5uAC-54" value="Open Air Interface (OAI)" style="text;html=1;align=center;verticalAlign=middle;whiteSpace=wrap;rounded=0;fontStyle=1" vertex="1" parent="1">
          <mxGeometry x="310" y="580" width="140" height="30" as="geometry" />
        </mxCell>
        <mxCell id="F01I8WIsRU8U-EAt5uAC-55" value="O1" style="text;html=1;align=center;verticalAlign=middle;whiteSpace=wrap;rounded=0;" vertex="1" parent="1">
          <mxGeometry x="748" y="725" width="60" height="30" as="geometry" />
        </mxCell>
        <mxCell id="F01I8WIsRU8U-EAt5uAC-56" value="O1" style="text;html=1;align=center;verticalAlign=middle;whiteSpace=wrap;rounded=0;" vertex="1" parent="1">
          <mxGeometry x="748" y="607" width="60" height="30" as="geometry" />
        </mxCell>
        <mxCell id="F01I8WIsRU8U-EAt5uAC-57" value="O1" style="text;html=1;align=center;verticalAlign=middle;whiteSpace=wrap;rounded=0;" vertex="1" parent="1">
          <mxGeometry x="71" y="496" width="60" height="30" as="geometry" />
        </mxCell>
        <mxCell id="F01I8WIsRU8U-EAt5uAC-58" value="O1" style="text;html=1;align=center;verticalAlign=middle;whiteSpace=wrap;rounded=0;" vertex="1" parent="1">
          <mxGeometry x="754" y="390" width="60" height="30" as="geometry" />
        </mxCell>
        <mxCell id="F01I8WIsRU8U-EAt5uAC-59" value="E2" style="text;html=1;align=center;verticalAlign=middle;whiteSpace=wrap;rounded=0;" vertex="1" parent="1">
          <mxGeometry x="611" y="555" width="60" height="30" as="geometry" />
        </mxCell>
        <mxCell id="F01I8WIsRU8U-EAt5uAC-60" value="E2" style="text;html=1;align=center;verticalAlign=middle;whiteSpace=wrap;rounded=0;" vertex="1" parent="1">
          <mxGeometry x="488" y="634" width="60" height="30" as="geometry" />
        </mxCell>
        <mxCell id="F01I8WIsRU8U-EAt5uAC-61" value="" style="endArrow=classic;startArrow=classic;html=1;rounded=0;entryX=0.5;entryY=1;entryDx=0;entryDy=0;exitX=0;exitY=0.25;exitDx=0;exitDy=0;" edge="1" parent="1" source="F01I8WIsRU8U-EAt5uAC-20" target="F01I8WIsRU8U-EAt5uAC-17">
          <mxGeometry width="50" height="50" relative="1" as="geometry">
            <mxPoint x="498" y="760" as="sourcePoint" />
            <mxPoint x="578" y="760" as="targetPoint" />
            <Array as="points">
              <mxPoint x="508" y="730" />
            </Array>
          </mxGeometry>
        </mxCell>
        <mxCell id="F01I8WIsRU8U-EAt5uAC-62" value="192.168.0.237" style="text;html=1;align=center;verticalAlign=middle;whiteSpace=wrap;rounded=0;" vertex="1" parent="1">
          <mxGeometry x="650" y="390" width="98" height="30" as="geometry" />
        </mxCell>
        <mxCell id="F01I8WIsRU8U-EAt5uAC-63" value="192.168.0.16" style="text;html=1;align=center;verticalAlign=middle;whiteSpace=wrap;rounded=0;" vertex="1" parent="1">
          <mxGeometry x="270" y="440" width="98" height="30" as="geometry" />
        </mxCell>
        <mxCell id="F01I8WIsRU8U-EAt5uAC-64" value="192.168.0.16" style="text;html=1;align=center;verticalAlign=middle;whiteSpace=wrap;rounded=0;" vertex="1" parent="1">
          <mxGeometry x="310" y="604" width="98" height="30" as="geometry" />
        </mxCell>
        <mxCell id="F01I8WIsRU8U-EAt5uAC-65" value="User Equipment (UE)" style="rounded=0;whiteSpace=wrap;html=1;" vertex="1" parent="1">
          <mxGeometry x="1020" y="880" width="102" height="40" as="geometry" />
        </mxCell>
        <mxCell id="F01I8WIsRU8U-EAt5uAC-66" value="User Equipment (UE)" style="rounded=0;whiteSpace=wrap;html=1;" vertex="1" parent="1">
          <mxGeometry x="1020" y="930" width="102" height="40" as="geometry" />
        </mxCell>
        <mxCell id="F01I8WIsRU8U-EAt5uAC-67" value="NSSF" style="rounded=0;whiteSpace=wrap;html=1;" vertex="1" parent="1">
          <mxGeometry x="1090" y="310" width="80" height="40" as="geometry" />
        </mxCell>
        <mxCell id="F01I8WIsRU8U-EAt5uAC-68" value="NRF" style="rounded=0;whiteSpace=wrap;html=1;" vertex="1" parent="1">
          <mxGeometry x="1210" y="310" width="80" height="40" as="geometry" />
        </mxCell>
        <mxCell id="F01I8WIsRU8U-EAt5uAC-69" value="UDM" style="rounded=0;whiteSpace=wrap;html=1;" vertex="1" parent="1">
          <mxGeometry x="1330" y="310" width="80" height="40" as="geometry" />
        </mxCell>
        <mxCell id="F01I8WIsRU8U-EAt5uAC-70" value="PCF" style="rounded=0;whiteSpace=wrap;html=1;" vertex="1" parent="1">
          <mxGeometry x="1450" y="310" width="80" height="40" as="geometry" />
        </mxCell>
        <mxCell id="F01I8WIsRU8U-EAt5uAC-71" value="NEF" style="rounded=0;whiteSpace=wrap;html=1;" vertex="1" parent="1">
          <mxGeometry x="1570" y="310" width="80" height="40" as="geometry" />
        </mxCell>
        <mxCell id="F01I8WIsRU8U-EAt5uAC-72" value="AUSF" style="rounded=0;whiteSpace=wrap;html=1;" vertex="1" parent="1">
          <mxGeometry x="1090" y="430" width="80" height="40" as="geometry" />
        </mxCell>
        <mxCell id="F01I8WIsRU8U-EAt5uAC-73" value="AMF" style="rounded=0;whiteSpace=wrap;html=1;" vertex="1" parent="1">
          <mxGeometry x="1210" y="430" width="80" height="40" as="geometry" />
        </mxCell>
        <mxCell id="F01I8WIsRU8U-EAt5uAC-74" value="SMF" style="rounded=0;whiteSpace=wrap;html=1;" vertex="1" parent="1">
          <mxGeometry x="1330" y="430" width="80" height="40" as="geometry" />
        </mxCell>
        <mxCell id="F01I8WIsRU8U-EAt5uAC-75" value="AF" style="rounded=0;whiteSpace=wrap;html=1;" vertex="1" parent="1">
          <mxGeometry x="1450" y="430" width="80" height="40" as="geometry" />
        </mxCell>
        <mxCell id="F01I8WIsRU8U-EAt5uAC-76" value="UDR" style="rounded=0;whiteSpace=wrap;html=1;" vertex="1" parent="1">
          <mxGeometry x="1570" y="430" width="80" height="40" as="geometry" />
        </mxCell>
        <mxCell id="F01I8WIsRU8U-EAt5uAC-77" value="" style="endArrow=classic;startArrow=classic;html=1;rounded=0;entryX=0.5;entryY=1;entryDx=0;entryDy=0;exitX=0.5;exitY=0;exitDx=0;exitDy=0;" edge="1" parent="1" source="F01I8WIsRU8U-EAt5uAC-72" target="F01I8WIsRU8U-EAt5uAC-67">
          <mxGeometry width="50" height="50" relative="1" as="geometry">
            <mxPoint x="1080" y="420" as="sourcePoint" />
            <mxPoint x="1130" y="370" as="targetPoint" />
          </mxGeometry>
        </mxCell>
        <mxCell id="F01I8WIsRU8U-EAt5uAC-78" value="" style="endArrow=classic;startArrow=classic;html=1;rounded=0;entryX=0.5;entryY=1;entryDx=0;entryDy=0;exitX=0.5;exitY=0;exitDx=0;exitDy=0;" edge="1" parent="1">
          <mxGeometry width="50" height="50" relative="1" as="geometry">
            <mxPoint x="1249.5" y="430" as="sourcePoint" />
            <mxPoint x="1249.5" y="350" as="targetPoint" />
          </mxGeometry>
        </mxCell>
        <mxCell id="F01I8WIsRU8U-EAt5uAC-79" value="" style="endArrow=classic;startArrow=classic;html=1;rounded=0;entryX=0.5;entryY=1;entryDx=0;entryDy=0;exitX=0.5;exitY=0;exitDx=0;exitDy=0;" edge="1" parent="1">
          <mxGeometry width="50" height="50" relative="1" as="geometry">
            <mxPoint x="1369.5" y="430" as="sourcePoint" />
            <mxPoint x="1369.5" y="350" as="targetPoint" />
          </mxGeometry>
        </mxCell>
        <mxCell id="F01I8WIsRU8U-EAt5uAC-80" value="" style="endArrow=classic;startArrow=classic;html=1;rounded=0;entryX=0.5;entryY=1;entryDx=0;entryDy=0;exitX=0.5;exitY=0;exitDx=0;exitDy=0;" edge="1" parent="1">
          <mxGeometry width="50" height="50" relative="1" as="geometry">
            <mxPoint x="1489.5" y="430" as="sourcePoint" />
            <mxPoint x="1489.5" y="350" as="targetPoint" />
          </mxGeometry>
        </mxCell>
        <mxCell id="F01I8WIsRU8U-EAt5uAC-81" value="" style="endArrow=classic;startArrow=classic;html=1;rounded=0;entryX=0.5;entryY=1;entryDx=0;entryDy=0;exitX=0.5;exitY=0;exitDx=0;exitDy=0;" edge="1" parent="1">
          <mxGeometry width="50" height="50" relative="1" as="geometry">
            <mxPoint x="1609.5" y="430" as="sourcePoint" />
            <mxPoint x="1609.5" y="350" as="targetPoint" />
          </mxGeometry>
        </mxCell>
        <mxCell id="F01I8WIsRU8U-EAt5uAC-82" value="" style="endArrow=classic;startArrow=classic;html=1;rounded=0;" edge="1" parent="1">
          <mxGeometry width="50" height="50" relative="1" as="geometry">
            <mxPoint x="1090" y="390" as="sourcePoint" />
            <mxPoint x="1650" y="390" as="targetPoint" />
          </mxGeometry>
        </mxCell>
        <mxCell id="F01I8WIsRU8U-EAt5uAC-83" value="UPF" style="rounded=0;whiteSpace=wrap;html=1;" vertex="1" parent="1">
          <mxGeometry x="1310" y="550" width="120" height="60" as="geometry" />
        </mxCell>
        <mxCell id="F01I8WIsRU8U-EAt5uAC-84" value="&lt;b&gt;&lt;font style=&quot;font-size: 18px;&quot;&gt;Control Plane&lt;/font&gt;&lt;/b&gt;" style="text;html=1;align=center;verticalAlign=middle;whiteSpace=wrap;rounded=0;" vertex="1" parent="1">
          <mxGeometry x="1070" y="275" width="600" height="30" as="geometry" />
        </mxCell>
        <mxCell id="F01I8WIsRU8U-EAt5uAC-85" value="Service Based Interface" style="text;html=1;align=left;verticalAlign=middle;whiteSpace=wrap;rounded=0;" vertex="1" parent="1">
          <mxGeometry x="1020" y="376" width="60" height="30" as="geometry" />
        </mxCell>
        <mxCell id="F01I8WIsRU8U-EAt5uAC-86" value="&lt;b&gt;&lt;font style=&quot;font-size: 18px;&quot;&gt;User Plane&lt;/font&gt;&lt;/b&gt;" style="text;html=1;align=center;verticalAlign=middle;whiteSpace=wrap;rounded=0;" vertex="1" parent="1">
          <mxGeometry x="1300" y="660" width="145" height="30" as="geometry" />
        </mxCell>
        <mxCell id="F01I8WIsRU8U-EAt5uAC-87" value="" style="endArrow=classic;startArrow=classic;html=1;rounded=0;edgeStyle=orthogonalEdgeStyle;exitX=0.25;exitY=1;exitDx=0;exitDy=0;entryX=0.75;entryY=1;entryDx=0;entryDy=0;" edge="1" parent="1" source="F01I8WIsRU8U-EAt5uAC-83" target="F01I8WIsRU8U-EAt5uAC-83">
          <mxGeometry width="50" height="50" relative="1" as="geometry">
            <mxPoint x="1459" y="633" as="sourcePoint" />
            <mxPoint x="1569" y="630" as="targetPoint" />
            <Array as="points">
              <mxPoint x="1340" y="650" />
              <mxPoint x="1400" y="650" />
            </Array>
          </mxGeometry>
        </mxCell>
        <mxCell id="F01I8WIsRU8U-EAt5uAC-88" value="N9" style="text;html=1;align=center;verticalAlign=middle;whiteSpace=wrap;rounded=0;" vertex="1" parent="1">
          <mxGeometry x="1340" y="625" width="60" height="30" as="geometry" />
        </mxCell>
        <mxCell id="F01I8WIsRU8U-EAt5uAC-89" value="" style="endArrow=classic;startArrow=classic;html=1;rounded=0;entryX=0.5;entryY=1;entryDx=0;entryDy=0;" edge="1" parent="1" source="F01I8WIsRU8U-EAt5uAC-83" target="F01I8WIsRU8U-EAt5uAC-74">
          <mxGeometry width="50" height="50" relative="1" as="geometry">
            <mxPoint x="1200" y="600" as="sourcePoint" />
            <mxPoint x="1250" y="550" as="targetPoint" />
          </mxGeometry>
        </mxCell>
        <mxCell id="F01I8WIsRU8U-EAt5uAC-90" value="&lt;b&gt;&lt;font style=&quot;font-size: 36px;&quot;&gt;RAN&lt;/font&gt;&lt;/b&gt;" style="text;html=1;align=center;verticalAlign=middle;whiteSpace=wrap;rounded=0;" vertex="1" parent="1">
          <mxGeometry x="30" y="915" width="107" height="70" as="geometry" />
        </mxCell>
        <mxCell id="F01I8WIsRU8U-EAt5uAC-91" value="" style="endArrow=classic;startArrow=classic;html=1;rounded=0;entryX=0.25;entryY=1;entryDx=0;entryDy=0;exitX=1;exitY=0.75;exitDx=0;exitDy=0;" edge="1" parent="1" source="F01I8WIsRU8U-EAt5uAC-19" target="F01I8WIsRU8U-EAt5uAC-73">
          <mxGeometry width="50" height="50" relative="1" as="geometry">
            <mxPoint x="940" y="610" as="sourcePoint" />
            <mxPoint x="990" y="560" as="targetPoint" />
            <Array as="points">
              <mxPoint x="1230" y="650" />
            </Array>
          </mxGeometry>
        </mxCell>
        <mxCell id="F01I8WIsRU8U-EAt5uAC-92" value="" style="endArrow=classic;startArrow=classic;html=1;rounded=0;entryX=0.75;entryY=1;entryDx=0;entryDy=0;exitX=1;exitY=0.5;exitDx=0;exitDy=0;" edge="1" parent="1" source="F01I8WIsRU8U-EAt5uAC-3" target="F01I8WIsRU8U-EAt5uAC-73">
          <mxGeometry width="50" height="50" relative="1" as="geometry">
            <mxPoint x="940" y="625" as="sourcePoint" />
            <mxPoint x="1240" y="480" as="targetPoint" />
            <Array as="points">
              <mxPoint x="1270" y="900" />
            </Array>
          </mxGeometry>
        </mxCell>
        <mxCell id="F01I8WIsRU8U-EAt5uAC-93" value="N2" style="text;html=1;align=center;verticalAlign=middle;whiteSpace=wrap;rounded=0;" vertex="1" parent="1">
          <mxGeometry x="1041" y="625" width="60" height="30" as="geometry" />
        </mxCell>
        <mxCell id="F01I8WIsRU8U-EAt5uAC-94" value="N1" style="text;html=1;align=center;verticalAlign=middle;whiteSpace=wrap;rounded=0;" vertex="1" parent="1">
          <mxGeometry x="1225" y="670" width="60" height="30" as="geometry" />
        </mxCell>
        <mxCell id="F01I8WIsRU8U-EAt5uAC-95" value="UERANSIM 192.168.0.16" style="text;html=1;align=left;verticalAlign=middle;whiteSpace=wrap;rounded=0;" vertex="1" parent="1">
          <mxGeometry x="137" y="936" width="90" height="30" as="geometry" />
        </mxCell>
        <mxCell id="F01I8WIsRU8U-EAt5uAC-96" value="DN" style="rounded=0;whiteSpace=wrap;html=1;" vertex="1" parent="1">
          <mxGeometry x="1570" y="560" width="80" height="40" as="geometry" />
        </mxCell>
        <mxCell id="F01I8WIsRU8U-EAt5uAC-97" value="" style="endArrow=classic;startArrow=classic;html=1;rounded=0;entryX=0;entryY=0.5;entryDx=0;entryDy=0;exitX=1;exitY=0.5;exitDx=0;exitDy=0;" edge="1" parent="1" source="F01I8WIsRU8U-EAt5uAC-83" target="F01I8WIsRU8U-EAt5uAC-96">
          <mxGeometry width="50" height="50" relative="1" as="geometry">
            <mxPoint x="1380" y="560" as="sourcePoint" />
            <mxPoint x="1380" y="480" as="targetPoint" />
          </mxGeometry>
        </mxCell>
        <mxCell id="F01I8WIsRU8U-EAt5uAC-98" value="N6" style="text;html=1;align=center;verticalAlign=middle;whiteSpace=wrap;rounded=0;" vertex="1" parent="1">
          <mxGeometry x="1470" y="555" width="60" height="30" as="geometry" />
        </mxCell>
        <mxCell id="F01I8WIsRU8U-EAt5uAC-99" value="N4" style="text;html=1;align=center;verticalAlign=middle;whiteSpace=wrap;rounded=0;" vertex="1" parent="1">
          <mxGeometry x="1360" y="496" width="60" height="30" as="geometry" />
        </mxCell>
        <mxCell id="F01I8WIsRU8U-EAt5uAC-100" value="" style="endArrow=classic;startArrow=classic;html=1;rounded=0;entryX=0;entryY=0.5;entryDx=0;entryDy=0;exitX=1;exitY=0.75;exitDx=0;exitDy=0;" edge="1" parent="1" source="F01I8WIsRU8U-EAt5uAC-20" target="F01I8WIsRU8U-EAt5uAC-83">
          <mxGeometry width="50" height="50" relative="1" as="geometry">
            <mxPoint x="940" y="610" as="sourcePoint" />
            <mxPoint x="990" y="560" as="targetPoint" />
            <Array as="points">
              <mxPoint x="1010" y="770" />
              <mxPoint x="1010" y="580" />
            </Array>
          </mxGeometry>
        </mxCell>
        <mxCell id="F01I8WIsRU8U-EAt5uAC-101" value="N3" style="text;html=1;align=center;verticalAlign=middle;whiteSpace=wrap;rounded=0;" vertex="1" parent="1">
          <mxGeometry x="1090" y="555" width="60" height="30" as="geometry" />
        </mxCell>
        <mxCell id="F01I8WIsRU8U-EAt5uAC-102" value="Reference Point Interface" style="text;html=1;align=left;verticalAlign=middle;whiteSpace=wrap;rounded=0;" vertex="1" parent="1">
          <mxGeometry x="1020" y="515" width="90" height="30" as="geometry" />
        </mxCell>
        <mxCell id="F01I8WIsRU8U-EAt5uAC-103" value="Free5GC&lt;div&gt;192.168.0.12&lt;/div&gt;" style="text;html=1;align=left;verticalAlign=middle;whiteSpace=wrap;rounded=0;" vertex="1" parent="1">
          <mxGeometry x="1020" y="275" width="90" height="30" as="geometry" />
        </mxCell>
        <mxCell id="F01I8WIsRU8U-EAt5uAC-104" value="A1" style="text;html=1;align=center;verticalAlign=middle;whiteSpace=wrap;rounded=0;" vertex="1" parent="1">
          <mxGeometry x="463" y="420" width="60" height="30" as="geometry" />
        </mxCell>
        <mxCell id="F01I8WIsRU8U-EAt5uAC-105" value="Open FH" style="text;html=1;align=center;verticalAlign=middle;whiteSpace=wrap;rounded=0;" vertex="1" parent="1">
          <mxGeometry x="426" y="796" width="60" height="30" as="geometry" />
        </mxCell>
        <mxCell id="F01I8WIsRU8U-EAt5uAC-106" value="F1" style="text;html=1;align=center;verticalAlign=middle;whiteSpace=wrap;rounded=0;" vertex="1" parent="1">
          <mxGeometry x="498" y="745" width="60" height="30" as="geometry" />
        </mxCell>
        <mxCell id="F01I8WIsRU8U-EAt5uAC-107" value="F1" style="text;html=1;align=center;verticalAlign=middle;whiteSpace=wrap;rounded=0;" vertex="1" parent="1">
          <mxGeometry x="435.5" y="610" width="60" height="30" as="geometry" />
        </mxCell>
        <mxCell id="F01I8WIsRU8U-EAt5uAC-108" value="" style="endArrow=classic;startArrow=classic;html=1;rounded=0;entryX=0;entryY=0.5;entryDx=0;entryDy=0;exitX=0.5;exitY=0;exitDx=0;exitDy=0;" edge="1" parent="1" source="F01I8WIsRU8U-EAt5uAC-21" target="F01I8WIsRU8U-EAt5uAC-19">
          <mxGeometry width="50" height="50" relative="1" as="geometry">
            <mxPoint x="578" y="740" as="sourcePoint" />
            <mxPoint x="518" y="560" as="targetPoint" />
            <Array as="points">
              <mxPoint x="428" y="630" />
            </Array>
          </mxGeometry>
        </mxCell>
        <mxCell id="F01I8WIsRU8U-EAt5uAC-109" value="E1" style="text;html=1;align=center;verticalAlign=middle;whiteSpace=wrap;rounded=0;" vertex="1" parent="1">
          <mxGeometry x="611" y="675" width="60" height="30" as="geometry" />
        </mxCell>
        <mxCell id="F01I8WIsRU8U-EAt5uAC-110" value="O-eNB" style="rounded=0;whiteSpace=wrap;html=1;" vertex="1" parent="1">
          <mxGeometry x="130.5" y="550" width="79.5" height="40" as="geometry" />
        </mxCell>
        <mxCell id="F01I8WIsRU8U-EAt5uAC-111" value="" style="endArrow=classic;startArrow=classic;html=1;rounded=0;entryX=0;entryY=0.5;entryDx=0;entryDy=0;exitX=0.5;exitY=0;exitDx=0;exitDy=0;" edge="1" parent="1" source="F01I8WIsRU8U-EAt5uAC-110" target="F01I8WIsRU8U-EAt5uAC-12">
          <mxGeometry width="50" height="50" relative="1" as="geometry">
            <mxPoint x="287" y="625" as="sourcePoint" />
            <mxPoint x="227" y="445" as="targetPoint" />
            <Array as="points">
              <mxPoint x="170" y="510" />
            </Array>
          </mxGeometry>
        </mxCell>
        <mxCell id="F01I8WIsRU8U-EAt5uAC-112" value="E2" style="text;html=1;align=center;verticalAlign=middle;whiteSpace=wrap;rounded=0;" vertex="1" parent="1">
          <mxGeometry x="180" y="485" width="60" height="30" as="geometry" />
        </mxCell>
        <mxCell id="F01I8WIsRU8U-EAt5uAC-113" value="" style="endArrow=classic;startArrow=classic;html=1;rounded=0;entryX=0;entryY=0.5;entryDx=0;entryDy=0;exitX=0;exitY=0.75;exitDx=0;exitDy=0;" edge="1" parent="1" source="F01I8WIsRU8U-EAt5uAC-5" target="F01I8WIsRU8U-EAt5uAC-22">
          <mxGeometry width="50" height="50" relative="1" as="geometry">
            <mxPoint x="190" y="865" as="sourcePoint" />
            <mxPoint x="288" y="825" as="targetPoint" />
            <Array as="points">
              <mxPoint x="80" y="300" />
              <mxPoint x="80" y="870" />
            </Array>
          </mxGeometry>
        </mxCell>
        <mxCell id="F01I8WIsRU8U-EAt5uAC-114" value="O1" style="text;html=1;align=center;verticalAlign=middle;whiteSpace=wrap;rounded=0;" vertex="1" parent="1">
          <mxGeometry x="40" y="664" width="60" height="30" as="geometry" />
        </mxCell>
        <mxCell id="F01I8WIsRU8U-EAt5uAC-115" value="O-Cloud" style="ellipse;shape=cloud;whiteSpace=wrap;html=1;" vertex="1" parent="1">
          <mxGeometry x="694" y="150" width="120" height="80" as="geometry" />
        </mxCell>
        <mxCell id="F01I8WIsRU8U-EAt5uAC-116" value="" style="endArrow=classic;startArrow=classic;html=1;rounded=0;exitX=0.5;exitY=0;exitDx=0;exitDy=0;entryX=0.16;entryY=0.55;entryDx=0;entryDy=0;entryPerimeter=0;" edge="1" parent="1" source="F01I8WIsRU8U-EAt5uAC-5" target="F01I8WIsRU8U-EAt5uAC-115">
          <mxGeometry width="50" height="50" relative="1" as="geometry">
            <mxPoint x="558" y="220" as="sourcePoint" />
            <mxPoint x="608" y="170" as="targetPoint" />
            <Array as="points">
              <mxPoint x="508" y="194" />
            </Array>
          </mxGeometry>
        </mxCell>
        <mxCell id="F01I8WIsRU8U-EAt5uAC-117" value="O2" style="text;html=1;align=center;verticalAlign=middle;whiteSpace=wrap;rounded=0;" vertex="1" parent="1">
          <mxGeometry x="573" y="190" width="60" height="30" as="geometry" />
        </mxCell>
      </root>
    </mxGraphModel>
  </diagram>
</mxfile>
